<svg fill="#f1c40f" xmlns="http://www.w3.org/2000/svg"  viewBox="0 0 80 80" width="100px" height="100px"><path d="M34.426,56c-5.235,0-8.065-1.847-10.803-3.634l-4.475-2.875l4.324,0.516c0.499,0.06,1.013,0.09,1.528,0.09c2.131,0,4.005-0.055,5.619-0.541c-2.573-0.967-4.869-2.992-5.571-5.182l-0.514-1.603l1.348,0.257C24.208,41.517,23,39.398,23,37.087v-1.7l1.486,0.739c0.14,0.078,0.294,0.157,0.458,0.235c-0.561-1.149-0.86-2.496-0.86-3.958c0-1.399,0.37-2.773,1.069-3.974l0.727-1.248l0.912,1.119c2.544,3.12,6.884,6.764,12.234,7.499c-0.021-0.311-0.03-0.598-0.03-0.804c0-4.407,3.291-7.905,7.655-7.905c2.228,0,4.024,0.595,5.348,1.77c1.253-0.3,2.449-0.784,3.562-1.444l2.265-1.344l-0.802,2.509c-0.187,0.585-0.431,1.133-0.728,1.641c0.1-0.041,0.199-0.084,0.298-0.128l2.601-1.155l-1.306,2.528c-0.718,1.39-1.613,2.926-2.874,4.004c0.003,0.141,0.004,0.28,0.004,0.421C55.02,45.776,47.316,56,34.426,56z M26.922,52.069C28.895,53.191,31.057,54,34.426,54c12.077,0,18.594-9.329,18.594-18.107c0-0.284-0.006-0.569-0.019-0.85l-0.023-0.538c-0.228-2.567-2.019-3.869-2.019-3.869c-0.961-1.024-2.41-1.544-4.308-1.544c-3.261,0-5.655,2.6-5.655,5.905c0,0.495,0.058,1.282,0.152,1.69l0.297,1.289l-1.321-0.065c-5.938-0.298-10.778-3.752-13.82-7.11c-0.146,0.519-0.22,1.058-0.22,1.603c0,2.205,0.843,4.032,2.312,5.015l2.907,1.942l-3.494-0.112c-0.764-0.024-1.694-0.277-2.531-0.584c0.78,2.331,3.073,4.174,5.17,4.595l4.151,0.833l-4.085,1.112c-0.68,0.185-1.558,0.234-2.626,0.144c1.33,1.544,3.669,2.766,5.712,2.803l2.812,0.052l-2.213,1.735C32.125,51.563,29.667,51.973,26.922,52.069z"/><path fill="none" stroke="#f1c40f" stroke-miterlimit="10" stroke-width="2" d="M40 8A32 32 0 1 0 40 72A32 32 0 1 0 40 8Z"/><path d="M40 12A1 1 0 1 0 40 14 1 1 0 1 0 40 12zM40 66A1 1 0 1 0 40 68 1 1 0 1 0 40 66zM67 39A1 1 0 1 0 67 41 1 1 0 1 0 67 39zM13 39A1 1 0 1 0 13 41 1 1 0 1 0 13 39zM59.092 19.908A1 1 0 1 0 59.092 21.908 1 1 0 1 0 59.092 19.908zM20.908 58.092A1 1 0 1 0 20.908 60.092 1 1 0 1 0 20.908 58.092zM59.092 58.092A1 1 0 1 0 59.092 60.092 1 1 0 1 0 59.092 58.092zM20.908 19.908A1 1 0 1 0 20.908 21.908 1 1 0 1 0 20.908 19.908zM29.668 14.055A1 1 0 1 0 29.668 16.055 1 1 0 1 0 29.668 14.055zM50.332 63.94499999999999A1 1 0 1 0 50.332 65.945 1 1 0 1 0 50.332 63.94499999999999zM64.945 28.668A1 1 0 1 0 64.945 30.668 1 1 0 1 0 64.945 28.668zM15.055 49.332A1 1 0 1 0 15.055 51.332 1 1 0 1 0 15.055 49.332zM50.332 14.055A1 1 0 1 0 50.332 16.055 1 1 0 1 0 50.332 14.055zM29.668 63.94499999999999A1 1 0 1 0 29.668 65.945 1 1 0 1 0 29.668 63.94499999999999zM64.945 49.332A1 1 0 1 0 64.945 51.332 1 1 0 1 0 64.945 49.332zM15.055 28.668A1 1 0 1 0 15.055 30.668 1 1 0 1 0 15.055 28.668zM34.733 12.519A1 1 0 1 0 34.733 14.519 1 1 0 1 0 34.733 12.519zM45.267 65.481A1 1 0 1 0 45.267 67.481 1 1 0 1 0 45.267 65.481zM66.481 33.733A1 1 0 1 0 66.481 35.733 1 1 0 1 0 66.481 33.733zM13.519 44.267A1 1 0 1 0 13.519 46.267 1 1 0 1 0 13.519 44.267zM55 16.55A1 1 0 1 0 55 18.55 1 1 0 1 0 55 16.55zM25 61.45A1 1 0 1 0 25 63.45 1 1 0 1 0 25 61.45zM62.45 54A1 1 0 1 0 62.45 56 1 1 0 1 0 62.45 54zM17.55 24A1 1 0 1 0 17.55 26 1 1 0 1 0 17.55 24zM25 16.55A1 1 0 1 0 25 18.55 1 1 0 1 0 25 16.55zM55 61.45A1 1 0 1 0 55 63.45 1 1 0 1 0 55 61.45zM62.45 24A1 1 0 1 0 62.45 26 1 1 0 1 0 62.45 24zM17.55 54A1 1 0 1 0 17.55 56 1 1 0 1 0 17.55 54zM45.267 12.519A1 1 0 1 0 45.267 14.519 1 1 0 1 0 45.267 12.519zM34.733 65.481A1 1 0 1 0 34.733 67.481 1 1 0 1 0 34.733 65.481zM66.481 44.267A1 1 0 1 0 66.481 46.267 1 1 0 1 0 66.481 44.267zM13.519 33.733A1 1 0 1 0 13.519 35.733 1 1 0 1 0 13.519 33.733z"/></svg>